<svg width="216" height="216" viewBox="0 0 216 216" fill="none" xmlns="http://www.w3.org/2000/svg">
<path d="M107.934 215.868C48.3236 215.868 -0.000106812 167.544 -0.000106812 107.934C-0.000106812 48.3237 48.3236 0 107.934 0C167.544 0 215.868 48.3237 215.868 107.934C215.868 167.544 167.544 215.868 107.934 215.868Z" fill="#A0B1BF"/>
<mask id="mask0" mask-type="alpha" maskUnits="userSpaceOnUse" x="0" y="0" width="216" height="216">
<path d="M107.934 215.868C48.3236 215.868 -0.000106812 167.544 -0.000106812 107.934C-0.000106812 48.3237 48.3236 0 107.934 0C167.544 0 215.868 48.3237 215.868 107.934C215.868 167.544 167.544 215.868 107.934 215.868Z" fill="white"/>
</mask>
<g mask="url(#mask0)">
<path d="M100.116 35.7657C102.995 23.1734 89.3468 13.5104 75.2917 20.1439C42.1919 35.7657 61.3988 59.1514 73.2715 56.633C85.1443 54.1145 97.2382 48.358 100.116 35.7657Z" fill="url(#paint0_linear)"/>
<path d="M92.1035 115.13C107.562 122.556 109.817 122.158 143.912 94.2624C195.36 52.1682 146.79 13.6717 94.622 34.1792C38.1365 59.004 57.0607 98.2954 92.1035 115.13Z" fill="url(#paint1_linear)"/>
<path fill-rule="evenodd" clip-rule="evenodd" d="M90.6645 144.632C95.9413 156.145 102.657 161.901 107.934 161.901C113.211 161.901 119.927 156.145 125.203 144.632V130.24C125.203 130.24 127.551 130.309 129.161 130.24C145.991 129.519 151.615 102.446 148.974 75.3651C147.04 55.5328 130.24 82.7494 102.897 63.681C103.976 84.5483 94.9819 82.3896 91.0243 79.8711C73.0353 71.5962 72.6755 105.416 90.4551 102.795C90.4479 103.155 90.5177 117.1 90.6645 144.632Z" fill="url(#paint2_linear)"/>
<path d="M125.203 130.24C118.727 129.761 110.66 126.139 101.002 119.375C103.961 129.567 112.028 135.587 125.203 137.436L125.203 130.24Z" fill="#FF9768"/>
<path fill-rule="evenodd" clip-rule="evenodd" d="M131.153 148.817C131.153 148.817 130.067 141.322 127.521 140.68C124.975 140.037 110.096 139.96 110.083 142.838C110.08 143.367 109.571 149.029 107.874 149.029C106.177 149.029 105.741 143.366 105.738 142.838C105.725 139.96 90.9324 140.071 88.3003 140.68C85.6682 141.288 84.6796 148.827 84.6796 148.827C84.6796 148.827 45.8253 167.123 41.7344 174.933C38.2165 181.649 35.5781 197.239 33.8192 221.704H182.049C180.29 197.239 177.651 181.649 174.133 174.933C170.044 167.127 131.153 148.817 131.153 148.817Z" fill="url(#paint3_linear)"/>
<path fill-rule="evenodd" clip-rule="evenodd" d="M107.934 171.975C106.344 171.975 105.056 170.686 105.056 169.097C105.056 167.507 106.344 166.218 107.934 166.218C109.524 166.218 110.812 167.507 110.812 169.097C110.812 170.686 109.524 171.975 107.934 171.975ZM107.934 186.366C106.344 186.366 105.056 185.077 105.056 183.488C105.056 181.898 106.344 180.609 107.934 180.609C109.524 180.609 110.812 181.898 110.812 183.488C110.812 185.077 109.524 186.366 107.934 186.366ZM105.056 197.879C105.056 199.468 106.344 200.757 107.934 200.757C109.524 200.757 110.812 199.468 110.812 197.879C110.812 196.289 109.524 195.001 107.934 195.001C106.344 195.001 105.056 196.289 105.056 197.879Z" fill="#664F4D"/>
<path d="M100.314 57.1531C111.826 85.9355 105.35 99.967 96.356 116.877C87.3615 133.786 98.5146 149.617 98.5146 149.617C98.5146 149.617 85.5626 141.342 85.5626 122.993C85.5626 104.644 98.5146 93.1311 87.7212 78.0204C76.9278 62.9096 88.8006 28.3707 100.314 57.1531Z" fill="url(#paint4_linear)"/>
</g>
<defs>
<linearGradient id="paint0_linear" x1="56.8452" y1="17.989" x2="56.8452" y2="56.8207" gradientUnits="userSpaceOnUse">
<stop stop-color="#1D0024"/>
<stop offset="1" stop-color="#100014"/>
</linearGradient>
<linearGradient id="paint1_linear" x1="165.814" y1="28.4999" x2="165.814" y2="119.219" gradientUnits="userSpaceOnUse">
<stop stop-color="#1D0024"/>
<stop offset="1" stop-color="#100014"/>
</linearGradient>
<linearGradient id="paint2_linear" x1="149.595" y1="63.681" x2="149.595" y2="161.901" gradientUnits="userSpaceOnUse">
<stop stop-color="#F7B186"/>
<stop offset="1" stop-color="#FFC299"/>
</linearGradient>
<linearGradient id="paint3_linear" x1="33.8192" y1="221.704" x2="33.8192" y2="140.314" gradientUnits="userSpaceOnUse">
<stop stop-color="#FCF2EB"/>
<stop offset="1" stop-color="#FFF9F5"/>
</linearGradient>
<linearGradient id="paint4_linear" x1="83.48" y1="46.0519" x2="83.48" y2="149.617" gradientUnits="userSpaceOnUse">
<stop stop-color="#1D0024"/>
<stop offset="1" stop-color="#100014"/>
</linearGradient>
</defs>
</svg>
